<svg width="18" height="20" viewBox="0 0 18 20" fill="none" xmlns="http://www.w3.org/2000/svg">
<g clip-path="url(#clip0_838_6735)">
<path d="M0.890756 4.975C0.638375 4.975 0.426821 4.87917 0.256092 4.6875C0.0853641 4.49583 0 4.25833 0 3.975C0 3.70833 0.0853641 3.47917 0.256092 3.2875C0.426821 3.09583 0.638375 3 0.890756 3H9.79832C10.0507 3 10.2623 3.09583 10.433 3.2875C10.6037 3.47917 10.6891 3.71667 10.6891 4C10.6891 4.28333 10.6037 4.51667 10.433 4.7C10.2623 4.88333 10.0507 4.975 9.79832 4.975H0.890756ZM0.890756 9.425C0.638375 9.425 0.426821 9.32917 0.256092 9.1375C0.0853641 8.94583 0 8.70833 0 8.425C0 8.15833 0.0853641 7.92917 0.256092 7.7375C0.426821 7.54583 0.638375 7.45 0.890756 7.45H9.79832C10.0507 7.45 10.2623 7.54583 10.433 7.7375C10.6037 7.92917 10.6891 8.16667 10.6891 8.45C10.6891 8.73333 10.6037 8.96667 10.433 9.15C10.2623 9.33333 10.0507 9.425 9.79832 9.425H0.890756ZM0.890756 13.9C0.638375 13.9 0.426821 13.8042 0.256092 13.6125C0.0853641 13.4208 0 13.175 0 12.875C0 12.6083 0.0853641 12.3792 0.256092 12.1875C0.426821 11.9958 0.638375 11.9 0.890756 11.9H6.14622C6.3986 11.9 6.61015 11.9958 6.78088 12.1875C6.95161 12.3792 7.03697 12.6167 7.03697 12.9C7.03697 13.1833 6.95161 13.4208 6.78088 13.6125C6.61015 13.8042 6.3986 13.9 6.14622 13.9H0.890756ZM11.6912 16.8L9.48655 14.35C9.32325 14.15 9.2416 13.9167 9.2416 13.65C9.2416 13.3833 9.32325 13.1583 9.48655 12.975C9.67955 12.775 9.89482 12.6708 10.1324 12.6625C10.3699 12.6542 10.5777 12.7417 10.7559 12.925L12.2034 14.575L15.6996 10.65C15.8777 10.45 16.093 10.35 16.3454 10.35C16.5978 10.35 16.8056 10.45 16.9689 10.65C17.1471 10.8333 17.2361 11.0625 17.2361 11.3375C17.2361 11.6125 17.1545 11.85 16.9912 12.05L12.7378 16.8C12.6042 16.9667 12.4335 17.05 12.2256 17.05C12.0178 17.05 11.8396 16.9667 11.6912 16.8Z" fill="#565656"/>
</g>
<defs>
<clipPath id="clip0_838_6735">
<rect width="17.8151" height="20" fill="white"/>
</clipPath>
</defs>
</svg>
