<svg width="20" height="20" viewBox="0 0 20 20" fill="none" xmlns="http://www.w3.org/2000/svg">
<path d="M10.2003 13.3246C10.09 13.3246 9.98654 13.3039 9.88999 13.2626C9.79343 13.2212 9.70377 13.1591 9.62101 13.0763L6.37258 9.82791C6.20705 9.66239 6.12774 9.46583 6.13463 9.23823C6.14153 9.01063 6.22774 8.82097 6.39327 8.66924C6.55879 8.50371 6.7519 8.42095 6.9726 8.42095C7.1933 8.42095 7.38642 8.50371 7.55194 8.66924L9.37272 10.5107V3.82763C9.37272 3.59313 9.45203 3.39657 9.61066 3.23794C9.76929 3.07931 9.96585 3 10.2003 3C10.4348 3 10.6314 3.07931 10.79 3.23794C10.9487 3.39657 11.028 3.59313 11.028 3.82763V10.5107L12.8694 8.66924C13.035 8.50371 13.2281 8.42095 13.4488 8.42095C13.6695 8.42095 13.8626 8.50371 14.0281 8.66924C14.1936 8.82097 14.2764 9.01063 14.2764 9.23823C14.2764 9.46583 14.1936 9.66239 14.0281 9.82791L10.7797 13.0763C10.6969 13.1591 10.6038 13.2212 10.5004 13.2626C10.3969 13.3039 10.2969 13.3246 10.2003 13.3246ZM4.65525 17.6283C4.20006 17.6283 3.81038 17.4662 3.48623 17.1421C3.16208 16.8179 3 16.4282 3 15.973V13.3246C3 13.0901 3.07931 12.8936 3.23794 12.7349C3.39657 12.5763 3.59313 12.497 3.82763 12.497C4.06212 12.497 4.25868 12.5763 4.41731 12.7349C4.57594 12.8936 4.65525 13.0832 4.65525 13.3039V15.973H15.7454V13.3039C15.7454 13.0832 15.8248 12.8936 15.9834 12.7349C16.142 12.5763 16.3386 12.497 16.5731 12.497C16.7938 12.497 16.9834 12.5763 17.1421 12.7349C17.3007 12.8936 17.38 13.0832 17.38 13.3039V15.973C17.38 16.4282 17.2179 16.8179 16.8938 17.1421C16.5696 17.4662 16.1868 17.6283 15.7454 17.6283H4.65525Z" fill="white"/>
</svg>
