<svg width="20" height="20" viewBox="0 0 20 20" fill="none" xmlns="http://www.w3.org/2000/svg">
<path d="M3.02083 16.9583C2.57639 16.9583 2.19097 16.7951 1.86458 16.4687C1.53819 16.1423 1.375 15.7569 1.375 15.3124V4.68742C1.375 4.22909 1.53819 3.83672 1.86458 3.51034C2.19097 3.18395 2.57639 3.02075 3.02083 3.02075H16.9792C17.4375 3.02075 17.8299 3.18395 18.1562 3.51034C18.4826 3.83672 18.6458 4.22909 18.6458 4.68742V15.3124C18.6458 15.7569 18.4826 16.1423 18.1562 16.4687C17.8299 16.7951 17.4375 16.9583 16.9792 16.9583H3.02083ZM16.9792 6.10409L10.4583 10.4374C10.375 10.4791 10.2986 10.5138 10.2292 10.5416C10.1597 10.5694 10.0833 10.5833 10 10.5833C9.91667 10.5833 9.84028 10.5694 9.77083 10.5416C9.70139 10.5138 9.625 10.4791 9.54167 10.4374L3.02083 6.10409V15.3124H16.9792V6.10409ZM10 9.22909L16.8958 4.68742H3.125L10 9.22909ZM3.02083 6.10409V6.29159C3.02083 6.24992 3.02083 6.18395 3.02083 6.09367C3.02083 6.00339 3.02083 5.90964 3.02083 5.81242C3.02083 5.5902 3.02083 5.41311 3.02083 5.28117C3.02083 5.14922 3.02083 5.15964 3.02083 5.31242V4.68742V5.29159C3.02083 5.16659 3.02083 5.15964 3.02083 5.27075C3.02083 5.38186 3.02083 5.55547 3.02083 5.79159C3.02083 5.9027 3.02083 5.99992 3.02083 6.08325C3.02083 6.16659 3.02083 6.23603 3.02083 6.29159V6.10409V15.3124V6.10409Z" fill="white"/>
</svg>
