<svg width="20" height="20" viewBox="0 0 20 20" fill="none" xmlns="http://www.w3.org/2000/svg">
<path d="M14.575 17.975C14.2917 17.975 14.0542 17.8792 13.8625 17.6875C13.6708 17.4958 13.575 17.2583 13.575 16.975V13.9H10.5C10.2167 13.9 9.97917 13.8042 9.7875 13.6125C9.59583 13.4208 9.5 13.175 9.5 12.875C9.5 12.6083 9.59583 12.3792 9.7875 12.1875C9.97917 11.9958 10.2167 11.9 10.5 11.9H13.575V8.8C13.575 8.53333 13.6708 8.3 13.8625 8.1C14.0542 7.9 14.2917 7.8 14.575 7.8C14.8583 7.8 15.0958 7.9 15.2875 8.1C15.4792 8.3 15.575 8.53333 15.575 8.8V11.9H18.65C18.9333 11.9 19.1708 11.9958 19.3625 12.1875C19.5542 12.3792 19.65 12.6167 19.65 12.9C19.65 13.1833 19.5542 13.4208 19.3625 13.6125C19.1708 13.8042 18.9333 13.9 18.65 13.9H15.575V16.975C15.575 17.2583 15.4792 17.4958 15.2875 17.6875C15.0958 17.8792 14.8583 17.975 14.575 17.975ZM1 13.9C0.716667 13.9 0.479167 13.8042 0.2875 13.6125C0.0958333 13.4208 0 13.175 0 12.875C0 12.6083 0.0958333 12.3792 0.2875 12.1875C0.479167 11.9958 0.716667 11.9 1 11.9H7.15C7.43333 11.9 7.67083 11.9958 7.8625 12.1875C8.05417 12.3792 8.15 12.6167 8.15 12.9C8.15 13.1833 8.05417 13.4208 7.8625 13.6125C7.67083 13.8042 7.43333 13.9 7.15 13.9H1ZM1 9.425C0.716667 9.425 0.479167 9.32917 0.2875 9.1375C0.0958333 8.94583 0 8.70833 0 8.425C0 8.15833 0.0958333 7.92917 0.2875 7.7375C0.479167 7.54583 0.716667 7.45 1 7.45H11.25C11.5333 7.45 11.7708 7.54583 11.9625 7.7375C12.1542 7.92917 12.25 8.16667 12.25 8.45C12.25 8.73333 12.1542 8.96667 11.9625 9.15C11.7708 9.33333 11.5333 9.425 11.25 9.425H1ZM1 4.975C0.716667 4.975 0.479167 4.87917 0.2875 4.6875C0.0958333 4.49583 0 4.25833 0 3.975C0 3.70833 0.0958333 3.47917 0.2875 3.2875C0.479167 3.09583 0.716667 3 1 3H11.25C11.5333 3 11.7708 3.09583 11.9625 3.2875C12.1542 3.47917 12.25 3.71667 12.25 4C12.25 4.28333 12.1542 4.51667 11.9625 4.7C11.7708 4.88333 11.5333 4.975 11.25 4.975H1Z" fill="white"/>
</svg>
