<svg width="20" height="20" viewBox="0 0 20 20" fill="none" xmlns="http://www.w3.org/2000/svg">
<path d="M8.77116 11.8959L6.72949 9.85425C6.60449 9.72925 6.45171 9.66675 6.27116 9.66675C6.0906 9.66675 5.93783 9.72925 5.81283 9.85425C5.67394 9.99314 5.60449 10.1563 5.60449 10.3438C5.60449 10.5313 5.66699 10.6876 5.79199 10.8126L8.33366 13.3542C8.44477 13.4654 8.5906 13.5209 8.77116 13.5209C8.95171 13.5209 9.09755 13.4654 9.20866 13.3542L14.2087 8.35425C14.3337 8.22925 14.3962 8.07647 14.3962 7.89592C14.3962 7.71536 14.3267 7.55564 14.1878 7.41675C14.0628 7.29175 13.9066 7.22925 13.7191 7.22925C13.5316 7.22925 13.3684 7.29869 13.2295 7.43758L8.77116 11.8959ZM10.0003 18.3334C8.81977 18.3334 7.72255 18.1216 6.70866 17.698C5.69477 17.2744 4.81283 16.6876 4.06283 15.9376C3.31283 15.1876 2.72602 14.3056 2.30241 13.2917C1.8788 12.2779 1.66699 11.1806 1.66699 10.0001C1.66699 8.83341 1.8788 7.74314 2.30241 6.72925C2.72602 5.71536 3.31283 4.83341 4.06283 4.08341C4.81283 3.33341 5.69477 2.74314 6.70866 2.31258C7.72255 1.88203 8.81977 1.66675 10.0003 1.66675C11.167 1.66675 12.2573 1.88203 13.2712 2.31258C14.285 2.74314 15.167 3.33341 15.917 4.08341C16.667 4.83341 17.2573 5.71536 17.6878 6.72925C18.1184 7.74314 18.3337 8.83341 18.3337 10.0001C18.3337 11.1806 18.1184 12.2779 17.6878 13.2917C17.2573 14.3056 16.667 15.1876 15.917 15.9376C15.167 16.6876 14.285 17.2744 13.2712 17.698C12.2573 18.1216 11.167 18.3334 10.0003 18.3334Z" fill="#05A87C"/>
</svg>
