<svg width="20" height="20" viewBox="0 0 20 20" fill="none" xmlns="http://www.w3.org/2000/svg">
<path d="M1 4.975C0.716667 4.975 0.479167 4.87917 0.2875 4.6875C0.0958333 4.49583 0 4.25833 0 3.975C0 3.70833 0.0958333 3.47917 0.2875 3.2875C0.479167 3.09583 0.716667 3 1 3H11C11.2833 3 11.5208 3.09583 11.7125 3.2875C11.9042 3.47917 12 3.71667 12 4C12 4.28333 11.9042 4.51667 11.7125 4.7C11.5208 4.88333 11.2833 4.975 11 4.975H1ZM1 9.425C0.716667 9.425 0.479167 9.32917 0.2875 9.1375C0.0958333 8.94583 0 8.70833 0 8.425C0 8.15833 0.0958333 7.92917 0.2875 7.7375C0.479167 7.54583 0.716667 7.45 1 7.45H11C11.2833 7.45 11.5208 7.54583 11.7125 7.7375C11.9042 7.92917 12 8.16667 12 8.45C12 8.73333 11.9042 8.96667 11.7125 9.15C11.5208 9.33333 11.2833 9.425 11 9.425H1ZM1 13.9C0.716667 13.9 0.479167 13.8042 0.2875 13.6125C0.0958333 13.4208 0 13.175 0 12.875C0 12.6083 0.0958333 12.3792 0.2875 12.1875C0.479167 11.9958 0.716667 11.9 1 11.9H6.9C7.18333 11.9 7.42083 11.9958 7.6125 12.1875C7.80417 12.3792 7.9 12.6167 7.9 12.9C7.9 13.1833 7.80417 13.4208 7.6125 13.6125C7.42083 13.8042 7.18333 13.9 6.9 13.9H1ZM13.125 16.8L10.65 14.35C10.4667 14.15 10.375 13.9167 10.375 13.65C10.375 13.3833 10.4667 13.1583 10.65 12.975C10.8667 12.775 11.1083 12.6708 11.375 12.6625C11.6417 12.6542 11.875 12.7417 12.075 12.925L13.7 14.575L17.625 10.65C17.825 10.45 18.0667 10.35 18.35 10.35C18.6333 10.35 18.8667 10.45 19.05 10.65C19.25 10.8333 19.35 11.0625 19.35 11.3375C19.35 11.6125 19.2583 11.85 19.075 12.05L14.3 16.8C14.15 16.9667 13.9583 17.05 13.725 17.05C13.4917 17.05 13.2917 16.9667 13.125 16.8Z" fill="#565656"/>
</svg>
