<svg version="1.1" id="レイヤー_1" xmlns="http://www.w3.org/2000/svg" x="0" y="0" viewBox="0 0 100 100" style="enable-background:new 0 0 100 100" xml:space="preserve"><style>.st0{fill:#ff4613}.st1{fill:#fff}</style><path class="st0" d="M73.3 3.4C71.74 1.84 68.67.57 66.47.57H33.53c-2.2 0-5.27 1.27-6.83 2.83L3.4 26.7C1.84 28.26.57 31.33.57 33.53v32.94c0 2.2 1.27 5.27 2.83 6.83l23.3 23.3c1.56 1.56 4.63 2.83 6.83 2.83h32.94c2.2 0 5.27-1.27 6.83-2.83l23.3-23.3c1.56-1.56 2.83-4.63 2.83-6.83V33.53c0-2.2-1.27-5.27-2.83-6.83L73.3 3.4z"/><path class="st1" d="M45.16 12.91a4.6 4.6 0 0 0 1.11-.83l-1.75-1.07c-.99-.59-2.27-.59-3.26.1-.09.09-.6.48-1.27 1.13a4.616 4.616 0 0 0 5.17.67z"/><path class="st1" d="M87.83 38.19c-1.78-10.78-11.27-18.78-22.34-18.78h-7.22l-10.43-6.38c-.48.46-1.03.86-1.63 1.17a6.905 6.905 0 0 1-7.38-.7c-.54.63-1.1 1.38-1.61 2.26-4.15 7.41-5.14 20.56 5.64 26.89 19.4 11.49 16.78 32.17 9.98 56.78h13.8c2.12 0 5.08-1.23 6.57-2.72l13.02-13.02c-2.36-3.53-4.07-6.98-4.55-10.03-1.27-6.37 2.16-10.33 1.71-13.19a8.362 8.362 0 0 1-6.71-4.53L70.6 44.02c-.36-.7-.09-1.51.61-1.87.7-.36 1.51-.09 1.87.61l6.07 11.91a5.599 5.599 0 0 0 7.53 2.45c.74-.38 1.34-.94 1.85-1.57l.02.01c1.79-4.04.6-9.68-.72-17.37zm-23.33-8.4c-1.57 0-2.85-1.28-2.85-2.85s1.28-2.85 2.85-2.85 2.85 1.28 2.85 2.85c0 1.58-1.27 2.85-2.85 2.85z"/><path class="st1" d="m47.04 49.79-6.37-2.38 1.7-17.29c.07-.7-.44-1.31-1.14-1.38-.7-.07-1.31.44-1.38 1.14l-.02.19c-.07.06-.14.11-.2.18l-9.41 13.26-6.5-2.43c-.75-.28-1.59.1-1.87.85l-8.87 23.73c-1.77 4.74.64 10.02 5.38 11.79l8.87 3.31c4.74 1.77 10.02-.64 11.79-5.38l8.87-23.73c.29-.74-.09-1.57-.85-1.86zm-15.47-3.4c-.21.56-.84.85-1.4.64s-.85-.84-.64-1.4a1.089 1.089 0 0 1 2.04.76zm1.11-1.96 6.67-9.4-1.13 11.47-5.54-2.07zm7.3 5.1c-.21.56-.84.85-1.4.64-.56-.21-.85-.84-.64-1.4.21-.56.84-.85 1.4-.64.56.21.85.84.64 1.4z"/><path d="m27.24 80.77-8.87-3.31C37.32 80.58 47.05 49.8 47.05 49.8c.75.28 1.13 1.12.85 1.87L39.03 75.4c-1.77 4.74-7.05 7.15-11.79 5.37z" style="opacity:.2;fill:#be2c11"/><circle class="st0" cx="59.87" cy="74.77" r="1.45"/><circle class="st0" cx="63.74" cy="75.38" r="1.45"/><circle class="st0" cx="67.6" cy="75.57" r="1.45"/><circle class="st0" cx="71.47" cy="75.4" r="1.45"/><circle class="st0" cx="75.34" cy="74.68" r="1.45"/><circle class="st0" cx="79.2" cy="73.42" r="1.45"/></svg>