<svg width="431" height="200" viewBox="0 0 431 200" fill="none" xmlns="http://www.w3.org/2000/svg">
<path d="M0 0H431V200H0V0Z" fill="#AEB3BA"/>
<path d="M183.688 139V146H182.12V136.06H183.352L189.036 143.228V136.074H190.618V146H189.316L183.688 139ZM196.982 146.07C196.273 146.07 195.624 145.93 195.036 145.65C194.458 145.361 193.958 144.983 193.538 144.516C193.118 144.04 192.792 143.499 192.558 142.892C192.334 142.285 192.222 141.665 192.222 141.03C192.222 140.367 192.344 139.733 192.586 139.126C192.829 138.519 193.16 137.983 193.58 137.516C194.01 137.049 194.514 136.681 195.092 136.41C195.68 136.13 196.32 135.99 197.01 135.99C197.72 135.99 198.364 136.139 198.942 136.438C199.53 136.727 200.03 137.11 200.44 137.586C200.86 138.062 201.182 138.603 201.406 139.21C201.64 139.807 201.756 140.419 201.756 141.044C201.756 141.707 201.635 142.341 201.392 142.948C201.159 143.555 200.828 144.091 200.398 144.558C199.969 145.015 199.46 145.384 198.872 145.664C198.294 145.935 197.664 146.07 196.982 146.07ZM193.818 141.03C193.818 141.497 193.893 141.949 194.042 142.388C194.192 142.827 194.402 143.214 194.672 143.55C194.952 143.886 195.288 144.157 195.68 144.362C196.072 144.558 196.511 144.656 196.996 144.656C197.5 144.656 197.944 144.553 198.326 144.348C198.718 144.133 199.05 143.853 199.32 143.508C199.591 143.163 199.796 142.775 199.936 142.346C200.076 141.917 200.146 141.478 200.146 141.03C200.146 140.554 200.072 140.101 199.922 139.672C199.773 139.233 199.558 138.851 199.278 138.524C199.008 138.188 198.676 137.922 198.284 137.726C197.902 137.521 197.472 137.418 196.996 137.418C196.492 137.418 196.044 137.525 195.652 137.74C195.26 137.945 194.929 138.216 194.658 138.552C194.388 138.888 194.178 139.275 194.028 139.714C193.888 140.143 193.818 140.582 193.818 141.03ZM206.839 146V136.06H208.407V146H206.839ZM219.011 146V138.846L216.057 144.264H215.189L212.221 138.846V146H210.653V136.06H212.333L215.623 142.136L218.913 136.06H220.593V146H219.011ZM225.761 136.06H227.133L231.053 146H229.401L228.351 143.298H224.515L223.479 146H221.813L225.761 136.06ZM228.043 142.136L226.447 137.866L224.795 142.136H228.043ZM238.871 144.768C238.031 145.636 237.065 146.07 235.973 146.07C235.31 146.07 234.694 145.935 234.125 145.664C233.556 145.384 233.061 145.011 232.641 144.544C232.221 144.077 231.89 143.536 231.647 142.92C231.414 142.304 231.297 141.66 231.297 140.988C231.297 140.316 231.414 139.677 231.647 139.07C231.89 138.463 232.221 137.931 232.641 137.474C233.061 137.017 233.56 136.657 234.139 136.396C234.718 136.125 235.348 135.99 236.029 135.99C236.981 135.99 237.779 136.191 238.423 136.592C239.067 136.984 239.552 137.507 239.879 138.16L238.675 139.028C238.404 138.487 238.031 138.081 237.555 137.81C237.079 137.539 236.556 137.404 235.987 137.404C235.52 137.404 235.096 137.507 234.713 137.712C234.33 137.908 234.004 138.174 233.733 138.51C233.462 138.837 233.252 139.219 233.103 139.658C232.963 140.097 232.893 140.554 232.893 141.03C232.893 141.534 232.972 142.005 233.131 142.444C233.299 142.883 233.523 143.265 233.803 143.592C234.092 143.919 234.433 144.18 234.825 144.376C235.217 144.563 235.642 144.656 236.099 144.656C236.603 144.656 237.084 144.539 237.541 144.306C238.008 144.073 238.451 143.704 238.871 143.2V142.136H236.785V140.974H240.187V146H238.871V144.768ZM248.793 144.614V146H241.975V136.06H248.667V137.446H243.543V140.274H247.981V141.576H243.543V144.614H248.793Z" fill="white"/>
<mask id="path-3-inside-1_302_2" fill="white">
<rect x="165" y="51" width="100" height="66.6666" rx="4"/>
</mask>
<rect x="165" y="51" width="100" height="66.6666" rx="4" stroke="white" stroke-width="10" mask="url(#path-3-inside-1_302_2)"/>
<path fill-rule="evenodd" clip-rule="evenodd" d="M229.173 76.5126C227.614 74.9699 225.104 74.9699 223.545 76.5126L199.363 100.447L190.591 89.7648C188.991 87.816 186.009 87.816 184.409 89.7648L169.775 107.587C167.631 110.197 169.488 114.125 172.866 114.125H192.77C193.338 114.447 194.006 114.637 194.754 114.637H257.964C261.538 114.637 263.318 110.308 260.778 107.794L229.173 76.5126Z" fill="white"/>
<rect x="171.167" y="57.1667" width="87.6666" height="54.5772" stroke="#AEB3BA" stroke-width="4"/>
<circle cx="185.91" cy="71.9091" r="7.27273" fill="white"/>
</svg>
