<svg width="211" height="300" viewBox="0 0 211 300" fill="none" xmlns="http://www.w3.org/2000/svg">
<rect width="210.74" height="300" fill="#BEC5D1"/>
<path d="M69.4052 186.043C69.7252 186.043 69.9852 186.149 70.1852 186.363C70.3852 186.576 70.4852 186.843 70.4852 187.163V198.823C70.4852 199.169 70.3652 199.463 70.1252 199.703C69.8985 199.929 69.6118 200.043 69.2652 200.043C69.0785 200.043 68.8918 200.016 68.7052 199.963C68.5318 199.896 68.4052 199.809 68.3252 199.703L60.9852 190.383V198.923C60.9852 199.243 60.8785 199.509 60.6652 199.723C60.4652 199.936 60.1985 200.043 59.8652 200.043C59.5452 200.043 59.2852 199.936 59.0852 199.723C58.8852 199.509 58.7852 199.243 58.7852 198.923V187.263C58.7852 186.916 58.8985 186.629 59.1252 186.403C59.3652 186.163 59.6585 186.043 60.0052 186.043C60.2052 186.043 60.3985 186.083 60.5852 186.163C60.7852 186.243 60.9318 186.349 61.0252 186.483L68.3052 195.763V187.163C68.3052 186.843 68.4052 186.576 68.6052 186.363C68.8185 186.149 69.0852 186.043 69.4052 186.043ZM86.3722 193.043C86.3722 194.363 86.0789 195.576 85.4922 196.683C84.9055 197.776 84.0922 198.643 83.0522 199.283C82.0255 199.923 80.8655 200.243 79.5722 200.243C78.2789 200.243 77.1122 199.923 76.0722 199.283C75.0455 198.643 74.2389 197.776 73.6522 196.683C73.0789 195.576 72.7922 194.363 72.7922 193.043C72.7922 191.723 73.0789 190.516 73.6522 189.423C74.2389 188.316 75.0455 187.443 76.0722 186.803C77.1122 186.163 78.2789 185.843 79.5722 185.843C80.8655 185.843 82.0255 186.163 83.0522 186.803C84.0922 187.443 84.9055 188.316 85.4922 189.423C86.0789 190.516 86.3722 191.723 86.3722 193.043ZM83.7722 193.043C83.7722 192.149 83.5922 191.343 83.2322 190.623C82.8722 189.889 82.3722 189.309 81.7322 188.883C81.0922 188.456 80.3722 188.243 79.5722 188.243C78.7589 188.243 78.0322 188.456 77.3922 188.883C76.7655 189.296 76.2722 189.869 75.9122 190.603C75.5655 191.336 75.3922 192.149 75.3922 193.043C75.3922 193.936 75.5655 194.749 75.9122 195.483C76.2722 196.216 76.7655 196.796 77.3922 197.223C78.0322 197.636 78.7589 197.843 79.5722 197.843C80.3722 197.843 81.0922 197.629 81.7322 197.203C82.3722 196.776 82.8722 196.203 83.2322 195.483C83.5922 194.749 83.7722 193.936 83.7722 193.043ZM96.7734 198.823C96.7734 199.169 96.6468 199.463 96.3934 199.703C96.1401 199.929 95.8468 200.043 95.5134 200.043C95.1534 200.043 94.8534 199.929 94.6134 199.703C94.3868 199.463 94.2734 199.169 94.2734 198.823V187.263C94.2734 186.916 94.3934 186.629 94.6334 186.403C94.8734 186.163 95.1801 186.043 95.5534 186.043C95.8868 186.043 96.1734 186.163 96.4134 186.403C96.6534 186.629 96.7734 186.916 96.7734 187.263V198.823ZM111.921 186.023C112.255 186.023 112.541 186.143 112.781 186.383C113.035 186.609 113.161 186.896 113.161 187.243V198.823C113.161 199.169 113.048 199.463 112.821 199.703C112.595 199.929 112.295 200.043 111.921 200.043C111.548 200.043 111.241 199.929 111.001 199.703C110.775 199.476 110.661 199.183 110.661 198.823V190.763L107.361 195.803C107.228 195.963 107.075 196.096 106.901 196.203C106.728 196.296 106.548 196.336 106.361 196.323C106.188 196.336 106.015 196.296 105.841 196.203C105.668 196.096 105.515 195.963 105.381 195.803L102.081 190.583V198.823C102.081 199.183 101.975 199.476 101.761 199.703C101.548 199.929 101.268 200.043 100.921 200.043C100.588 200.043 100.315 199.929 100.101 199.703C99.8879 199.463 99.7813 199.169 99.7813 198.823V187.243C99.7813 186.909 99.9013 186.623 100.141 186.383C100.395 186.143 100.695 186.023 101.041 186.023C101.241 186.023 101.441 186.076 101.641 186.183C101.841 186.276 101.995 186.403 102.101 186.563L106.461 193.263L110.941 186.563C111.048 186.403 111.188 186.276 111.361 186.183C111.548 186.076 111.735 186.023 111.921 186.023ZM127.148 198.483C127.215 198.656 127.248 198.816 127.248 198.963C127.248 199.309 127.135 199.596 126.908 199.823C126.681 200.036 126.421 200.143 126.128 200.143C125.888 200.143 125.668 200.069 125.468 199.923C125.281 199.776 125.135 199.576 125.028 199.323L123.988 196.903H118.028L116.988 199.343C116.895 199.596 116.748 199.796 116.548 199.943C116.361 200.076 116.155 200.143 115.928 200.143C115.581 200.143 115.315 200.049 115.128 199.863C114.955 199.676 114.868 199.423 114.868 199.103C114.868 198.983 114.888 198.856 114.928 198.723L119.908 186.763C120.015 186.496 120.175 186.289 120.388 186.143C120.601 185.996 120.841 185.936 121.108 185.963C121.348 185.963 121.568 186.036 121.768 186.183C121.981 186.316 122.135 186.509 122.228 186.763L127.148 198.483ZM119.008 194.603H123.008L120.988 189.923L119.008 194.603ZM139.164 192.483C139.51 192.483 139.797 192.603 140.024 192.843C140.25 193.069 140.364 193.356 140.364 193.703V197.943C140.364 198.409 140.157 198.769 139.744 199.023C138.437 199.836 137.004 200.243 135.444 200.243C134.124 200.243 132.904 199.923 131.784 199.283C130.664 198.629 129.777 197.756 129.124 196.663C128.47 195.556 128.144 194.349 128.144 193.043C128.144 191.736 128.47 190.536 129.124 189.443C129.777 188.336 130.664 187.463 131.784 186.823C132.904 186.169 134.124 185.843 135.444 185.843C136.764 185.843 137.91 186.109 138.884 186.643C139.084 186.749 139.23 186.889 139.324 187.063C139.43 187.236 139.484 187.423 139.484 187.623C139.484 187.956 139.37 188.249 139.144 188.503C138.93 188.743 138.664 188.863 138.344 188.863C138.144 188.863 137.924 188.809 137.684 188.703C136.964 188.396 136.217 188.243 135.444 188.243C134.59 188.243 133.804 188.463 133.084 188.903C132.364 189.329 131.79 189.909 131.364 190.643C130.95 191.376 130.744 192.176 130.744 193.043C130.744 193.909 130.95 194.709 131.364 195.443C131.79 196.176 132.364 196.763 133.084 197.203C133.804 197.629 134.59 197.843 135.444 197.843C135.817 197.843 136.217 197.809 136.644 197.743C137.07 197.676 137.444 197.589 137.764 197.483V194.883H135.884C135.537 194.883 135.244 194.769 135.004 194.543C134.777 194.316 134.664 194.029 134.664 193.683C134.664 193.336 134.777 193.049 135.004 192.823C135.244 192.596 135.537 192.483 135.884 192.483H139.164ZM150.69 197.743C151.036 197.743 151.323 197.863 151.55 198.103C151.79 198.329 151.91 198.596 151.91 198.903C151.91 199.236 151.79 199.509 151.55 199.723C151.323 199.936 151.036 200.043 150.69 200.043H143.99C143.643 200.043 143.35 199.929 143.11 199.703C142.883 199.463 142.77 199.169 142.77 198.823V187.263C142.77 186.916 142.883 186.629 143.11 186.403C143.35 186.163 143.643 186.043 143.99 186.043H150.69C151.036 186.043 151.323 186.156 151.55 186.383C151.79 186.596 151.91 186.876 151.91 187.223C151.91 187.556 151.796 187.829 151.57 188.043C151.343 188.243 151.05 188.343 150.69 188.343H145.27V191.743H149.79C150.136 191.743 150.423 191.856 150.65 192.083C150.89 192.296 151.01 192.576 151.01 192.923C151.01 193.256 150.896 193.529 150.67 193.743C150.443 193.943 150.15 194.043 149.79 194.043H145.27V197.743H150.69Z" fill="white"/>
<g clip-path="url(#clip0_590_34)">
<rect x="57.0009" y="105.042" width="96" height="62.9016" rx="6" transform="rotate(-0.0243924 57.0009 105.042)" stroke="white" stroke-width="4"/>
<mask id="path-4-inside-1_590_34" fill="white">
<path fill-rule="evenodd" clip-rule="evenodd" d="M126.705 123.84C123.57 120.665 118.445 120.667 115.313 123.845L92.4045 147.092L85.5119 139.91C81.9676 136.217 76.0608 136.219 72.5196 139.916L39.5065 174.374C34.0223 180.098 38.0817 189.604 46.0091 189.6L112.065 189.572C116.103 189.571 119.136 187.102 120.414 183.924L166.86 183.904C173.961 183.901 177.538 175.337 172.55 170.284L126.705 123.84Z"/>
</mask>
<path d="M115.313 123.845L118.162 126.652L118.162 126.652L115.313 123.845ZM126.705 123.84L123.858 126.65L123.858 126.65L126.705 123.84ZM92.4045 147.092L89.5185 149.862L92.3666 152.83L95.2536 149.9L92.4045 147.092ZM85.5119 139.91L88.3979 137.14L88.3979 137.14L85.5119 139.91ZM72.5196 139.916L69.6312 137.148L69.6312 137.148L72.5196 139.916ZM39.5065 174.374L42.3948 177.141L42.3948 177.141L39.5065 174.374ZM120.414 183.924L120.412 179.924L117.71 179.925L116.702 182.432L120.414 183.924ZM172.55 170.284L175.397 167.474L175.397 167.474L172.55 170.284ZM118.162 126.652C119.728 125.064 122.291 125.062 123.858 126.65L129.551 121.03C124.85 116.267 117.161 116.271 112.464 121.037L118.162 126.652ZM95.2536 149.9L118.162 126.652L112.464 121.037L89.5554 144.285L95.2536 149.9ZM82.6259 142.68L89.5185 149.862L95.2905 144.323L88.3979 137.14L82.6259 142.68ZM75.4079 142.683C77.3753 140.629 80.6568 140.628 82.6259 142.68L88.3979 137.14C83.2783 131.806 74.7463 131.809 69.6312 137.148L75.4079 142.683ZM42.3948 177.141L75.4079 142.683L69.6312 137.148L36.6181 171.607L42.3948 177.141ZM46.0074 185.6C41.6033 185.602 39.3481 180.321 42.3948 177.141L36.6181 171.607C28.6965 179.875 34.5601 193.605 46.0108 193.6L46.0074 185.6ZM112.063 185.572L46.0074 185.6L46.0108 193.6L112.066 193.572L112.063 185.572ZM116.702 182.432C115.972 184.247 114.311 185.571 112.063 185.572L112.066 193.572C117.896 193.57 122.299 189.956 124.125 185.416L116.702 182.432ZM166.858 179.904L120.412 179.924L120.415 187.924L166.862 187.904L166.858 179.904ZM169.703 173.094C172.197 175.621 170.409 179.903 166.858 179.904L166.862 187.904C177.513 187.9 182.879 175.054 175.397 167.474L169.703 173.094ZM123.858 126.65L169.703 173.094L175.397 167.474L129.551 121.03L123.858 126.65Z" fill="white" mask="url(#path-4-inside-1_590_34)"/>
<path d="M79.5084 122.601C79.5095 125.383 77.2653 127.626 74.5105 127.628C71.7557 127.629 69.5095 125.387 69.5084 122.605C69.5072 119.823 71.7514 117.579 74.5062 117.578C77.261 117.577 79.5072 119.819 79.5084 122.601Z" stroke="white" stroke-width="4"/>
</g>
<defs>
<clipPath id="clip0_590_34">
<rect width="100" height="66.9016" fill="white" transform="translate(55 103.043) rotate(-0.0243924)"/>
</clipPath>
</defs>
</svg>
