<svg width="300" height="211" viewBox="0 0 300 211" fill="none" xmlns="http://www.w3.org/2000/svg">
<rect width="300" height="210.74" fill="#BEC5D1"/>
<path d="M114.405 142.043C114.725 142.043 114.985 142.149 115.185 142.363C115.385 142.576 115.485 142.843 115.485 143.163V154.823C115.485 155.169 115.365 155.463 115.125 155.703C114.898 155.929 114.612 156.043 114.265 156.043C114.078 156.043 113.892 156.016 113.705 155.963C113.532 155.896 113.405 155.809 113.325 155.703L105.985 146.383V154.923C105.985 155.243 105.878 155.509 105.665 155.723C105.465 155.936 105.198 156.043 104.865 156.043C104.545 156.043 104.285 155.936 104.085 155.723C103.885 155.509 103.785 155.243 103.785 154.923V143.263C103.785 142.916 103.898 142.629 104.125 142.403C104.365 142.163 104.658 142.043 105.005 142.043C105.205 142.043 105.398 142.083 105.585 142.163C105.785 142.243 105.932 142.349 106.025 142.483L113.305 151.763V143.163C113.305 142.843 113.405 142.576 113.605 142.363C113.818 142.149 114.085 142.043 114.405 142.043ZM131.372 149.043C131.372 150.363 131.079 151.576 130.492 152.683C129.906 153.776 129.092 154.643 128.052 155.283C127.026 155.923 125.866 156.243 124.572 156.243C123.279 156.243 122.112 155.923 121.072 155.283C120.046 154.643 119.239 153.776 118.652 152.683C118.079 151.576 117.792 150.363 117.792 149.043C117.792 147.723 118.079 146.516 118.652 145.423C119.239 144.316 120.046 143.443 121.072 142.803C122.112 142.163 123.279 141.843 124.572 141.843C125.866 141.843 127.026 142.163 128.052 142.803C129.092 143.443 129.906 144.316 130.492 145.423C131.079 146.516 131.372 147.723 131.372 149.043ZM128.772 149.043C128.772 148.149 128.592 147.343 128.232 146.623C127.872 145.889 127.372 145.309 126.732 144.883C126.092 144.456 125.372 144.243 124.572 144.243C123.759 144.243 123.032 144.456 122.392 144.883C121.766 145.296 121.272 145.869 120.912 146.603C120.566 147.336 120.392 148.149 120.392 149.043C120.392 149.936 120.566 150.749 120.912 151.483C121.272 152.216 121.766 152.796 122.392 153.223C123.032 153.636 123.759 153.843 124.572 153.843C125.372 153.843 126.092 153.629 126.732 153.203C127.372 152.776 127.872 152.203 128.232 151.483C128.592 150.749 128.772 149.936 128.772 149.043ZM141.773 154.823C141.773 155.169 141.647 155.463 141.393 155.703C141.14 155.929 140.847 156.043 140.513 156.043C140.153 156.043 139.853 155.929 139.613 155.703C139.387 155.463 139.273 155.169 139.273 154.823V143.263C139.273 142.916 139.393 142.629 139.633 142.403C139.873 142.163 140.18 142.043 140.553 142.043C140.887 142.043 141.173 142.163 141.413 142.403C141.653 142.629 141.773 142.916 141.773 143.263V154.823ZM156.921 142.023C157.255 142.023 157.541 142.143 157.781 142.383C158.035 142.609 158.161 142.896 158.161 143.243V154.823C158.161 155.169 158.048 155.463 157.821 155.703C157.595 155.929 157.295 156.043 156.921 156.043C156.548 156.043 156.241 155.929 156.001 155.703C155.775 155.476 155.661 155.183 155.661 154.823V146.763L152.361 151.803C152.228 151.963 152.075 152.096 151.901 152.203C151.728 152.296 151.548 152.336 151.361 152.323C151.188 152.336 151.015 152.296 150.841 152.203C150.668 152.096 150.515 151.963 150.381 151.803L147.081 146.583V154.823C147.081 155.183 146.975 155.476 146.761 155.703C146.548 155.929 146.268 156.043 145.921 156.043C145.588 156.043 145.315 155.929 145.101 155.703C144.888 155.463 144.781 155.169 144.781 154.823V143.243C144.781 142.909 144.901 142.623 145.141 142.383C145.395 142.143 145.695 142.023 146.041 142.023C146.241 142.023 146.441 142.076 146.641 142.183C146.841 142.276 146.995 142.403 147.101 142.563L151.461 149.263L155.941 142.563C156.048 142.403 156.188 142.276 156.361 142.183C156.548 142.076 156.735 142.023 156.921 142.023ZM172.148 154.483C172.215 154.656 172.248 154.816 172.248 154.963C172.248 155.309 172.135 155.596 171.908 155.823C171.681 156.036 171.421 156.143 171.128 156.143C170.888 156.143 170.668 156.069 170.468 155.923C170.281 155.776 170.135 155.576 170.028 155.323L168.988 152.903H163.028L161.988 155.343C161.895 155.596 161.748 155.796 161.548 155.943C161.361 156.076 161.155 156.143 160.928 156.143C160.581 156.143 160.315 156.049 160.128 155.863C159.955 155.676 159.868 155.423 159.868 155.103C159.868 154.983 159.888 154.856 159.928 154.723L164.908 142.763C165.015 142.496 165.175 142.289 165.388 142.143C165.601 141.996 165.841 141.936 166.108 141.963C166.348 141.963 166.568 142.036 166.768 142.183C166.981 142.316 167.135 142.509 167.228 142.763L172.148 154.483ZM164.008 150.603H168.008L165.988 145.923L164.008 150.603ZM184.164 148.483C184.51 148.483 184.797 148.603 185.024 148.843C185.25 149.069 185.364 149.356 185.364 149.703V153.943C185.364 154.409 185.157 154.769 184.744 155.023C183.437 155.836 182.004 156.243 180.444 156.243C179.124 156.243 177.904 155.923 176.784 155.283C175.664 154.629 174.777 153.756 174.124 152.663C173.47 151.556 173.144 150.349 173.144 149.043C173.144 147.736 173.47 146.536 174.124 145.443C174.777 144.336 175.664 143.463 176.784 142.823C177.904 142.169 179.124 141.843 180.444 141.843C181.764 141.843 182.91 142.109 183.884 142.643C184.084 142.749 184.23 142.889 184.324 143.063C184.43 143.236 184.484 143.423 184.484 143.623C184.484 143.956 184.37 144.249 184.144 144.503C183.93 144.743 183.664 144.863 183.344 144.863C183.144 144.863 182.924 144.809 182.684 144.703C181.964 144.396 181.217 144.243 180.444 144.243C179.59 144.243 178.804 144.463 178.084 144.903C177.364 145.329 176.79 145.909 176.364 146.643C175.95 147.376 175.744 148.176 175.744 149.043C175.744 149.909 175.95 150.709 176.364 151.443C176.79 152.176 177.364 152.763 178.084 153.203C178.804 153.629 179.59 153.843 180.444 153.843C180.817 153.843 181.217 153.809 181.644 153.743C182.07 153.676 182.444 153.589 182.764 153.483V150.883H180.884C180.537 150.883 180.244 150.769 180.004 150.543C179.777 150.316 179.664 150.029 179.664 149.683C179.664 149.336 179.777 149.049 180.004 148.823C180.244 148.596 180.537 148.483 180.884 148.483H184.164ZM195.69 153.743C196.036 153.743 196.323 153.863 196.55 154.103C196.79 154.329 196.91 154.596 196.91 154.903C196.91 155.236 196.79 155.509 196.55 155.723C196.323 155.936 196.036 156.043 195.69 156.043H188.99C188.643 156.043 188.35 155.929 188.11 155.703C187.883 155.463 187.77 155.169 187.77 154.823V143.263C187.77 142.916 187.883 142.629 188.11 142.403C188.35 142.163 188.643 142.043 188.99 142.043H195.69C196.036 142.043 196.323 142.156 196.55 142.383C196.79 142.596 196.91 142.876 196.91 143.223C196.91 143.556 196.796 143.829 196.57 144.043C196.343 144.243 196.05 144.343 195.69 144.343H190.27V147.743H194.79C195.136 147.743 195.423 147.856 195.65 148.083C195.89 148.296 196.01 148.576 196.01 148.923C196.01 149.256 195.896 149.529 195.67 149.743C195.443 149.943 195.15 150.043 194.79 150.043H190.27V153.743H195.69Z" fill="white"/>
<g clip-path="url(#clip0_590_34)">
<rect x="102.001" y="61.0417" width="96" height="62.9016" rx="6" transform="rotate(-0.0243924 102.001 61.0417)" stroke="white" stroke-width="4"/>
<mask id="path-4-inside-1_590_34" fill="white">
<path fill-rule="evenodd" clip-rule="evenodd" d="M171.705 79.84C168.57 76.6648 163.445 76.667 160.313 79.8449L137.405 103.092L130.512 95.9101C126.968 92.2169 121.061 92.2194 117.52 95.9156L84.5065 130.374C79.0223 136.098 83.0817 145.604 91.0091 145.6L157.065 145.572C161.103 145.571 164.136 143.102 165.414 139.924L211.86 139.904C218.961 139.901 222.538 131.337 217.55 126.284L171.705 79.84Z"/>
</mask>
<path d="M160.313 79.8449L163.162 82.6525L163.162 82.6525L160.313 79.8449ZM171.705 79.84L168.858 82.65L168.858 82.65L171.705 79.84ZM137.405 103.092L134.519 105.862L137.367 108.83L140.254 105.9L137.405 103.092ZM130.512 95.9101L133.398 93.1404L133.398 93.1404L130.512 95.9101ZM117.52 95.9156L114.631 93.1484L114.631 93.1484L117.52 95.9156ZM84.5065 130.374L87.3948 133.141L87.3948 133.141L84.5065 130.374ZM165.414 139.924L165.412 135.924L162.71 135.925L161.702 138.432L165.414 139.924ZM217.55 126.284L220.397 123.474L220.397 123.474L217.55 126.284ZM163.162 82.6525C164.728 81.0635 167.291 81.0625 168.858 82.65L174.551 77.03C169.85 72.2672 162.161 72.2705 157.464 77.0373L163.162 82.6525ZM140.254 105.9L163.162 82.6525L157.464 77.0373L134.555 100.285L140.254 105.9ZM127.626 98.6797L134.519 105.862L140.291 100.323L133.398 93.1404L127.626 98.6797ZM120.408 98.6828C122.375 96.6294 125.657 96.628 127.626 98.6797L133.398 93.1404C128.278 87.8058 119.746 87.8095 114.631 93.1484L120.408 98.6828ZM87.3948 133.141L120.408 98.6828L114.631 93.1484L81.6181 127.607L87.3948 133.141ZM91.0074 141.6C86.6033 141.602 84.3481 136.321 87.3948 133.141L81.6181 127.607C73.6965 135.875 79.5601 149.605 91.0108 149.6L91.0074 141.6ZM157.063 141.572L91.0074 141.6L91.0108 149.6L157.066 149.572L157.063 141.572ZM161.702 138.432C160.972 140.247 159.311 141.571 157.063 141.572L157.066 149.572C162.896 149.57 167.299 145.956 169.125 141.416L161.702 138.432ZM211.858 135.904L165.412 135.924L165.415 143.924L211.862 143.904L211.858 135.904ZM214.703 129.094C217.197 131.621 215.409 135.903 211.858 135.904L211.862 143.904C222.513 143.9 227.879 131.054 220.397 123.474L214.703 129.094ZM168.858 82.65L214.703 129.094L220.397 123.474L174.551 77.03L168.858 82.65Z" fill="white" mask="url(#path-4-inside-1_590_34)"/>
<path d="M124.508 78.6009C124.51 81.3825 122.265 83.6265 119.511 83.6277C116.756 83.6288 114.51 81.3868 114.508 78.6051C114.507 75.8234 116.751 73.5795 119.506 73.5783C122.261 73.5771 124.507 75.8192 124.508 78.6009Z" stroke="white" stroke-width="4"/>
</g>
<defs>
<clipPath id="clip0_590_34">
<rect width="100" height="66.9016" fill="white" transform="translate(100 59.0426) rotate(-0.0243924)"/>
</clipPath>
</defs>
</svg>
